<svg id="logo" width="150" height="150" viewBox="0 0 150 150" xmlns="http://www.w3.org/2000/svg">
    <!--Stacked Product Cards-->
    <rect x="40" y="50" width="70" height="50" rx="5" fill="#3498db" stroke="#2c3e50" stroke-width="3"/>
    <rect x="45" y="55" width="70" height="50" rx="5" fill="#5dade2" stroke="#2c3e50" stroke-width="3"/>
    <rect x="50" y="60" width="70" height="50" rx="5" fill="#85c1e9" stroke="#2c3e50" stroke-width="3"/>

    <!--Image Placeholder-->
    <rect x="55" y="65" width="20" height="20" fill="#f1c40f" stroke="#2c3e50" stroke-width="2"/>
    <polyline points="56,80 65,70 74,80" stroke="#2c3e50" stroke-width="2" fill="none"/>
    <circle cx="65" cy="72" r="2" fill="#2c3e50"/>

    <!--Text Lines-->
    <line x1="78" y1="68" x2="110" y2="68" stroke="white" stroke-width="2"/>
    <line x1="78" y1="75" x2="110" y2="75" stroke="white" stroke-width="2"/>
    <line x1="78" y1="82" x2="110" y2="82" stroke="white" stroke-width="2"/>

    <!--Magic Wand-->
    <rect x="90" y="30" width="8" height="50" transform="rotate(45 90 30)" fill="#2c3e50"/>
    <circle cx="94" cy="28" r="6" fill="gold" stroke="orange" stroke-width="2"/>

    <!--Magic Sparkles-->
    <circle cx="110" cy="20" r="4" fill="gold"/>
    <circle cx="125" cy="40" r="3" fill="gold"/>
    <circle cx="100" cy="50" r="3" fill="gold"/>
</svg>